<?xml version="1.0" encoding="UTF-8"?>
<svg id="Layer_1" data-name="Layer 1" xmlns="http://www.w3.org/2000/svg" viewBox="0 0 123.43 164.14">
  <path d="M123.42,68.49H0v49.57c1.31,24.38,21.07,44.44,45.44,45.93,16.04-.93,33.3,2.61,48.44-3.79,17.69-7.48,29.45-25.4,29.55-44.63v-47.07ZM85.89,119.9l-6.21,10.7c-4.89-5.68-9.9-10.3-15.84-14.66.92,7.26,2.38,13.86,4.75,20.86h-12.41c2.51-6.87,3.96-13.47,4.75-20.73-5.94,4.36-10.96,9.11-15.84,14.52l-6.21-10.7c7.39-1.32,13.86-3.3,20.6-6.34-6.73-3.04-13.2-4.89-20.47-6.47l6.21-10.7c4.89,5.68,9.77,10.3,15.71,14.66-.79-7.39-2.38-14.13-4.75-21.26h12.41c-2.51,7-4.09,13.73-4.75,21.13,5.81-4.36,10.96-8.98,15.84-14.52l6.21,10.7c-7.39,1.32-13.86,3.3-20.6,6.34,6.73,2.91,13.34,4.89,20.6,6.47Z"/>
  <g>
    <path d="M96.07,73.82l-.19-27.24c-2.02-19.85-20.16-33.95-39.96-30.73-15.17,2.47-26.92,15.13-28.56,30.36l-.19,27.61h-7.76v-26.89C22.05,9.94,68.15-6.38,93.21,21.73c13.53,15.18,10.07,51.97,10.07,51.97l-7.21.12Z"/>
    <path d="M88.62,81.45l-.24-34.44c-.85-7.45-4.56-14.03-10.47-18.56-5.95-4.56-13.34-6.41-20.79-5.2-11.72,1.91-20.83,11.51-22.27,23.41l-.23,34.66H11.91v-34.65s0-.27,0-.27C13.38,26.07,26.32,9.35,45.69,2.75c19.23-6.55,39.58-1.19,53.11,13.99,6.73,7.55,10.77,19.7,11.99,36.11.86,11.59-.02,21.15-.05,21.56l-.63,6.68-21.49.36Z"/>
  </g>
</svg>